<svg width="16" height="16" viewBox="0 0 16 16" fill="#8F95B2" xmlns="http://www.w3.org/2000/svg">
<path d="M3.8 11.2667H4.8V10.2667H3.8V11.2667ZM5.396 14.7293L6.10311 15.4364L6.10406 15.4355L5.396 14.7293ZM8.84933 11.2667V10.2667H8.43433L8.14127 10.5605L8.84933 11.2667ZM14.0667 0H1.93333V2H14.0667V0ZM1.93333 0C0.867715 0 0 0.867715 0 1.93333H2C2 1.95478 1.99032 1.97222 1.98127 1.98127C1.97222 1.99032 1.95478 2 1.93333 2V0ZM0 1.93333V10.3333H2V1.93333H0ZM0 10.3333C0 11.399 0.867715 12.2667 1.93333 12.2667V10.2667C1.95478 10.2667 1.97222 10.2763 1.98127 10.2854C1.99032 10.2944 2 10.3119 2 10.3333H0ZM1.93333 12.2667H3.8V10.2667H1.93333V12.2667ZM2.8 11.2667V14.0667H4.8V11.2667H2.8ZM2.8 14.0667C2.8 15.1323 3.66772 16 4.73333 16V14C4.75478 14 4.77222 14.0097 4.78127 14.0187C4.79032 14.0278 4.8 14.0452 4.8 14.0667H2.8ZM4.73333 16C5.26289 16 5.74971 15.7898 6.10311 15.4364L4.68889 14.0222C4.69666 14.0145 4.70571 14.0085 4.71505 14.0046C4.72492 14.0005 4.73197 14 4.73333 14V16ZM6.10406 15.4355L9.55739 11.9728L8.14127 10.5605L4.68794 14.0232L6.10406 15.4355ZM8.84933 12.2667H14.0667V10.2667H8.84933V12.2667ZM14.0667 12.2667C15.1323 12.2667 16 11.399 16 10.3333H14C14 10.3119 14.0097 10.2944 14.0187 10.2854C14.0278 10.2763 14.0452 10.2667 14.0667 10.2667V12.2667ZM16 10.3333V1.93333H14V10.3333H16ZM16 1.93333C16 0.867715 15.1323 0 14.0667 0V2C14.0452 2 14.0278 1.99032 14.0187 1.98127C14.0097 1.97222 14 1.95478 14 1.93333H16Z" fill="#8F95B2"/>
</svg>
