<svg width="16" height="14" viewBox="0 0 16 14" fill="none" xmlns="http://www.w3.org/2000/svg">
<path fill-rule="evenodd" clip-rule="evenodd" d="M15.99 8.62C15.91 8.04 15.26 7.66 14.56 7.57C14.41 7.55 14.24 7.53 14.07 7.52C14.13 7.51 14.18 7.51 14.23 7.5C14.94 7.42 15.46 7.03 15.38 6.45C15.3 5.87 14.65 5.49 13.95 5.4C13.61 5.36 13.23 5.33 12.82 5.31C12.82 5.31 12.82 5.31 12.81 5.31C12.57 5.3 12.32 5.29 12.06 5.29C11.58 5.27 10.95 5.25 10.47 5.21C10.11 5.18 10.06 4.93 10.1 4.68C10.45 3.78 10.64 2.77 10.6 1.77C10.56 0.920004 10 0.0900041 9.19 4.13181e-06C8.52 -0.0699959 8.03 0.390004 8.2 0.980004C8.76 2.91 6.13 5.2 4 6.49V12.49C5.66 13.52 8.35 14.05 11.48 13.99C11.67 13.99 11.87 13.98 12.1 13.97C12.13 13.97 12.16 13.97 12.19 13.97C12.41 13.96 12.65 13.94 12.92 13.92C13.63 13.86 14.46 13.41 14.42 12.83C14.39 12.32 14.02 12.04 13.55 11.9C13.82 11.88 14.09 11.86 14.34 11.84C15.05 11.78 15.58 11.39 15.51 10.8C15.45 10.22 14.81 9.83 14.1 9.73C14.08 9.73 14.05 9.72 14.03 9.72C14.32 9.7 14.6 9.69 14.84 9.67C15.55 9.64 16.07 9.2 15.99 8.62ZM2 6H0V13H2C2.55 13 3 12.55 3 12V7C3 6.44 2.55 6 2 6Z" fill="#8F95B2"/>
</svg>
